<svg xmlns="http://www.w3.org/2000/svg" version="1.1" xmlns:xlink="http://www.w3.org/1999/xlink" xmlns:svgjs="http://svgjs.dev/svgjs" width="1000" height="318" viewBox="0 0 1000 318"><g transform="matrix(1,0,0,1,-0.6060606060606233,-0.3353107160493778)"><svg viewBox="0 0 396 126" data-background-color="#ffffff" preserveAspectRatio="xMidYMid meet" height="318" width="1000" xmlns="http://www.w3.org/2000/svg" xmlns:xlink="http://www.w3.org/1999/xlink"><g id="tight-bounds" transform="matrix(1,0,0,1,0.2400000000000091,0.13285896296295618)"><svg viewBox="0 0 395.52 125.73428207407407" height="125.73428207407407" width="395.52"><g><svg viewBox="0 0 395.52 125.73428207407407" height="125.73428207407407" width="395.52"><g><svg viewBox="0 0 395.52 125.73428207407407" height="125.73428207407407" width="395.52"><g id="textblocktransform"><svg viewBox="0 0 395.52 125.73428207407407" height="125.73428207407407" width="395.52" id="textblock"><g><svg viewBox="0 0 395.52 125.73428207407407" height="125.73428207407407" width="395.52"><rect width="395.52" height="125.73428207407407" x="0" y="0" opacity="1" fill="#0718c4" data-fill-palette-color="tertiary"></rect><g transform="matrix(1,0,0,1,23.607599999999998,23.607599999999998)"><svg width="348.3048" viewBox="0 -29.5 202.47999572753906 45.650001525878906" height="78.51908207407408" data-palette-color="#ffffff"><path d="M1.5 0L0 0 0-29.5 1.5-29.5 1.5 0ZM12 0L7.5 0 7.5-29.5 12-29.5 12 0ZM15 0L13.5 0 13.5-29.5 15-29.5 15 0ZM18 0L16.5 0 16.5-29.5 18-29.5 18 0ZM24 0L19.5 0 19.5-29.5 24-29.5 24 0ZM12.5 16L8.55 4.35 9.9 4.35 12.9 13.25 15.7 4.35 17 4.35 13.1 16 12.5 16ZM30 0L25.5 0 25.5-29.5 30-29.5 30 0ZM33 0L31.5 0 31.5-29.5 33-29.5 33 0ZM39 0L34.5 0 34.5-29.5 39-29.5 39 0ZM46.5 0L45 0 45-29.5 46.5-29.5 46.5 0ZM49.5 0L48 0 48-29.5 49.5-29.5 49.5 0ZM34.7 15.95L34.7 4.35 41.8 4.35 41.8 5.5 35.9 5.5 35.9 9.3 40.8 9.3 40.8 10.5 35.9 10.5 35.9 14.8 41.75 14.8 41.75 15.95 34.7 15.95ZM55.5 0L51 0 51-29.5 55.5-29.5 55.5 0ZM58.5 0L57 0 57-29.5 58.5-29.5 58.5 0ZM61.5 0L60 0 60-29.5 61.5-29.5 61.5 0ZM72 0L67.5 0 67.5-29.5 72-29.5 72 0ZM75 0L73.5 0 73.5-29.5 75-29.5 75 0ZM60.05 15.95L60.05 4.35 61.55 4.35 61.55 4.5Q61.45 4.6 61.4 4.75L61.4 4.75Q61.4 4.85 61.4 5.2L61.4 5.2 61.4 9.3 65.9 9.3 65.9 4.35 67.45 4.35 67.45 4.5Q67.34 4.6 67.3 4.75L67.3 4.75Q67.3 4.85 67.3 5.2L67.3 5.2 67.3 15.95 65.9 15.95 65.9 10.45 61.4 10.45 61.4 15.95 60.05 15.95ZM77.99 0L76.49 0 76.49-29.5 77.99-29.5 77.99 0ZM83.99 0L79.49 0 79.49-29.5 83.99-29.5 83.99 0ZM86.99 0L85.49 0 85.49-29.5 86.99-29.5 86.99 0ZM97.49 0L92.99 0 92.99-29.5 97.49-29.5 97.49 0ZM100.49 0L98.99 0 98.99-29.5 100.49-29.5 100.49 0ZM86.09 15.95L86.09 14.85 88.39 14.85 88.39 5.45 86.24 5.45 86.24 4.35 91.99 4.35 91.99 5.45 89.69 5.45 89.69 14.85 92.09 14.85 92.09 15.95 86.09 15.95ZM106.49 0L101.99 0 101.99-29.5 106.49-29.5 106.49 0ZM112.49 0L107.99 0 107.99-29.5 112.49-29.5 112.49 0ZM115.49 0L113.99 0 113.99-29.5 115.49-29.5 115.49 0ZM122.99 0L121.49 0 121.49-29.5 122.99-29.5 122.99 0ZM125.99 0L124.49 0 124.49-29.5 125.99-29.5 125.99 0ZM115.39 16.15L115.39 16.15Q114.09 16.15 113.09 15.5L113.09 15.5Q112.04 14.85 111.44 13.55L111.44 13.55Q110.84 12.2 110.84 10.2L110.84 10.2Q110.84 8.1 111.49 6.75L111.49 6.75Q112.14 5.45 113.14 4.85L113.14 4.85Q114.14 4.3 115.29 4.3L115.29 4.3Q116.54 4.3 117.44 4.9L117.44 4.9Q118.34 5.5 118.79 6.55L118.79 6.55 117.69 7.1 117.54 7.15 117.49 7.05 117.49 6.9Q117.49 6.7 117.24 6.35L117.24 6.35Q116.84 5.8 116.34 5.55L116.34 5.55Q115.84 5.3 115.29 5.3L115.29 5.3Q113.79 5.3 112.94 6.6L112.94 6.6Q112.14 7.85 112.14 10.15L112.14 10.15Q112.14 11.55 112.54 12.7L112.54 12.7Q112.99 13.8 113.69 14.4L113.69 14.4Q114.44 15 115.34 15L115.34 15Q116.04 15 116.64 14.65L116.64 14.65Q117.29 14.25 117.69 13.6L117.69 13.6 118.64 14.25Q118.04 15.2 117.29 15.65L117.29 15.65Q116.49 16.15 115.39 16.15ZM128.99 0L127.49 0 127.49-29.5 128.99-29.5 128.99 0ZM134.99 0L130.49 0 130.49-29.5 134.99-29.5 134.99 0ZM137.99 0L136.49 0 136.49-29.5 137.99-29.5 137.99 0ZM140.99 0L139.49 0 139.49-29.5 140.99-29.5 140.99 0ZM151.49 0L146.99 0 146.99-29.5 151.49-29.5 151.49 0ZM136.84 15.95L136.84 4.35 138.34 4.35 138.34 4.5Q138.24 4.6 138.19 4.75L138.19 4.75Q138.19 4.85 138.19 5.2L138.19 5.2 138.19 14.85 143.74 14.85 143.74 15.95 136.84 15.95ZM157.49 0L152.99 0 152.99-29.5 157.49-29.5 157.49 0ZM160.49 0L158.99 0 158.99-29.5 160.49-29.5 160.49 0ZM166.49 0L161.99 0 161.99-29.5 166.49-29.5 166.49 0ZM173.99 0L172.49 0 172.49-29.5 173.99-29.5 173.99 0ZM176.99 0L175.49 0 175.49-29.5 176.99-29.5 176.99 0ZM162.19 15.95L162.19 4.35 169.29 4.35 169.29 5.5 163.39 5.5 163.39 9.3 168.29 9.3 168.29 10.5 163.39 10.5 163.39 14.8 169.24 14.8 169.24 15.95 162.19 15.95ZM179.98 0L178.48 0 178.48-29.5 179.98-29.5 179.98 0ZM187.48 0L185.98 0 185.98-29.5 187.48-29.5 187.48 0ZM193.48 0L188.98 0 188.98-29.5 193.48-29.5 193.48 0ZM196.48 0L194.98 0 194.98-29.5 196.48-29.5 196.48 0ZM202.48 0L197.98 0 197.98-29.5 202.48-29.5 202.48 0ZM187.33 15.95L190.48 10.05 187.38 4.35 188.78 4.35 191.23 8.75 193.63 4.35 194.93 4.35 191.98 10 195.28 15.95 193.83 15.95 191.23 11.35 188.73 15.95 187.33 15.95Z" opacity="1" transform="matrix(1,0,0,1,0,0)" fill="#ffffff" class="wordmark-text-0" data-fill-palette-color="quaternary" id="text-0"></path></svg></g></svg></g></svg></g></svg></g><g></g></svg></g><defs></defs></svg><rect width="395.52" height="125.73428207407407" fill="none" stroke="none" visibility="hidden"></rect></g></svg></g></svg>